<?xml version="1.0" standalone="no"?>
<!DOCTYPE svg PUBLIC "-//W3C//DTD SVG 20010904//EN"
 "http://www.w3.org/TR/2001/REC-SVG-20010904/DTD/svg10.dtd">
<svg version="1.0" xmlns="http://www.w3.org/2000/svg"
 width="1134.000000pt" height="1033.000000pt" viewBox="0 0 1134.000000 1033.000000"
 preserveAspectRatio="xMidYMid meet">

<g transform="translate(0.000000,1033.000000) scale(0.100000,-0.100000)"
fill="#000000" stroke="none">
<path d="M6679 10320 c-768 -41 -1582 -291 -2196 -675 -1276 -797 -1986 -2047
-2083 -3665 -29 -480 18 -1095 111 -1468 23 -93 124 -375 189 -526 85 -201
290 -583 392 -733 23 -34 27 -47 18 -62 -23 -44 -69 -253 -80 -367 -27 -267
37 -557 175 -790 152 -256 398 -453 680 -544 167 -53 251 -65 465 -65 253 0
425 26 695 102 l129 36 91 -33 c354 -129 740 -218 1140 -262 158 -17 720 -17
880 0 192 20 477 70 645 113 117 29 175 39 237 39 80 0 82 0 85 26 3 23 15 30
133 73 761 278 1449 769 1954 1396 1207 1497 1333 3576 317 5210 -44 72 -81
133 -81 136 0 21 -161 247 -252 355 -579 682 -1203 1149 -1911 1428 -539 212
-1136 307 -1733 276z m1746 -3818 c-4 -4 -735 -92 -760 -91 -5 0 -28 25 -50
56 -55 76 -203 226 -299 302 -163 129 -343 235 -511 302 -44 17 -81 33 -83 34
-5 5 259 146 533 285 439 222 792 374 1055 453 l115 35 3 -686 c1 -377 0 -687
-3 -690z m-2555 428 c201 -13 410 -42 550 -75 90 -22 130 -39 280 -122 210
-115 298 -173 385 -254 246 -231 361 -587 382 -1193 l6 -188 81 6 c221 18 502
65 711 117 184 46 317 94 470 169 222 109 347 220 421 373 33 70 36 72 48 22
43 -176 13 -383 -76 -533 -76 -128 -247 -278 -414 -364 -297 -152 -625 -232
-1205 -293 l-56 -6 -8 -1207 c-8 -1334 -10 -1273 55 -1403 56 -109 145 -186
266 -230 50 -19 82 -22 204 -23 80 -1 166 2 193 6 l47 8 0 -140 0 -140 -573 0
-574 0 -72 51 c-152 106 -292 264 -378 426 -78 147 -133 354 -133 505 l0 70
-132 -138 c-474 -490 -1053 -793 -1705 -891 -68 -10 -176 -16 -293 -16 -206
-1 -308 15 -477 74 -416 145 -711 501 -789 953 -24 138 -15 387 20 524 114
454 374 766 961 1157 632 420 1367 697 2137 804 82 12 149 21 151 21 5 0 34
68 46 110 20 66 33 224 26 310 -14 176 -67 380 -139 533 -92 196 -421 398
-752 463 -132 26 -374 24 -527 -4 -307 -57 -680 -228 -1002 -457 -49 -35 -91
-62 -93 -60 -5 4 -63 488 -59 490 29 22 213 123 317 175 594 298 1099 407
1700 370z"/>
<path d="M6330 4314 c-8 -2 -80 -15 -160 -29 -393 -70 -764 -175 -1023 -291
-575 -257 -849 -650 -798 -1147 58 -570 343 -800 833 -673 306 80 704 307
1099 627 l99 80 0 719 c0 785 4 726 -50 714z"/>
<path d="M1380 8448 c-91 -13 -203 -52 -285 -100 -83 -49 -216 -180 -264 -261
-149 -253 -149 -551 0 -804 48 -81 181 -212 264 -261 144 -84 326 -123 483
-102 187 25 329 94 457 224 153 156 225 329 225 541 0 212 -72 385 -225 541
-126 127 -268 199 -448 223 -89 12 -116 12 -207 -1z"/>
<path d="M2823 1666 c-95 -23 -183 -74 -259 -150 -109 -109 -164 -242 -164
-394 0 -361 342 -631 689 -543 247 62 412 259 428 511 16 266 -162 509 -422
575 -71 18 -199 18 -272 1z"/>
</g>
</svg>
